<?xml version="1.0" encoding="iso-8859-1"?>
<!-- Generator: Adobe Illustrator 19.0.0, SVG Export Plug-In . SVG Version: 6.00 Build 0)  -->
<svg version="1.1" id="Layer_1" xmlns="http://www.w3.org/2000/svg" xmlns:xlink="http://www.w3.org/1999/xlink" x="0px" y="0px"
	 viewBox="0 0 512 512" style="enable-background:new 0 0 512 512;" xml:space="preserve">
<circle style="fill:#F9B54C;" cx="256" cy="256" r="256"/>
<path style="fill:#F4A200;" d="M509.55,291.407L362.774,144.631L171.158,349.044l-22.219,18.044l142.464,142.464
	C404.454,493.911,493.908,404.459,509.55,291.407z"/>
<circle style="fill:#E6F3FF;" cx="256" cy="256" r="154.29"/>
<path style="fill:#CFDBE6;" d="M410.29,256c0-85.211-69.077-154.29-154.29-154.29V410.29C341.213,410.29,410.29,341.211,410.29,256z
	"/>
<path style="fill:#31BAFD;" d="M172.12,287.454c0-46.327,83.88-146.791,83.88-146.791s83.88,100.464,83.88,146.791
	s-37.555,83.88-83.88,83.88S172.12,333.781,172.12,287.454z"/>
<path style="fill:#2B9ED8;" d="M339.88,287.454c0-46.32-83.858-146.763-83.88-146.789v230.671
	C302.327,371.334,339.88,333.781,339.88,287.454z"/>
<path style="fill:#324A5E;" d="M249.634,327.706c-2.086,0-4.199-0.476-6.189-1.479c-6.777-3.422-9.497-11.693-6.073-18.47
	l15.344-30.38h-15.782c-4.775,0-9.207-2.477-11.709-6.544c-2.503-4.067-2.715-9.14-0.562-13.402l25.419-50.329
	c3.422-6.778,11.693-9.495,18.47-6.073s9.497,11.692,6.073,18.47l-15.344,30.382h15.782c4.775,0,9.207,2.477,11.709,6.544
	c2.503,4.067,2.715,9.14,0.562,13.402l-25.419,50.328C259.498,324.942,254.657,327.706,249.634,327.706z"/>
<path style="fill:#2B3B4E;" d="M286.773,256.422c-2.501-4.067-6.934-6.544-11.709-6.544h-15.782l15.344-30.382
	c3.424-6.778,0.703-15.048-6.073-18.47c-4.108-2.074-8.759-1.881-12.553,0.093v124.993c2.46-1.283,4.57-3.293,5.916-5.96
	l25.419-50.328C289.489,265.563,289.277,260.489,286.773,256.422z"/>
<g>
</g>
<g>
</g>
<g>
</g>
<g>
</g>
<g>
</g>
<g>
</g>
<g>
</g>
<g>
</g>
<g>
</g>
<g>
</g>
<g>
</g>
<g>
</g>
<g>
</g>
<g>
</g>
<g>
</g>
</svg>
