<?xml version="1.0" standalone="no"?>
<!DOCTYPE svg PUBLIC "-//W3C//DTD SVG 20010904//EN"
 "http://www.w3.org/TR/2001/REC-SVG-20010904/DTD/svg10.dtd">
<svg version="1.0" xmlns="http://www.w3.org/2000/svg"
 width="1280.000000pt" height="790.000000pt" viewBox="0 0 1280.000000 790.000000"
 preserveAspectRatio="xMidYMid meet">
<metadata>
Created by potrace 1.15, written by Peter Selinger 2001-2017
</metadata>
<g transform="translate(0.000000,790.000000) scale(0.100000,-0.100000)"
fill="#000000" stroke="none">
<path d="M7148 7878 c-26 -13 -116 -32 -283 -59 l-246 -40 -31 27 c-24 19 -40
25 -65 22 -22 -3 -33 0 -33 9 0 19 -18 16 -47 -7 -14 -11 -32 -20 -39 -20 -9
0 -14 -12 -14 -35 0 -39 0 -39 -114 -54 -37 -6 -76 -17 -86 -26 -14 -13 -29
-15 -65 -10 -41 7 -47 5 -52 -13 -6 -26 -77 -36 -110 -16 -26 16 -77 18 -119
5 -16 -5 -48 -14 -71 -20 -35 -10 -44 -17 -59 -55 -18 -44 -19 -44 -168 -106
-118 -49 -154 -60 -166 -51 -50 37 -81 53 -126 67 -48 14 -59 13 -154 -6 -131
-27 -257 -33 -344 -17 -65 11 -72 15 -100 55 -16 23 -33 42 -38 42 -4 0 -8
-15 -8 -34 0 -21 -6 -36 -15 -40 -20 -7 -19 -32 2 -41 13 -4 2 -12 -41 -30
-79 -32 -128 -67 -211 -150 -113 -114 -240 -315 -290 -460 -10 -27 -20 -82
-22 -122 l-6 -71 -71 -4 c-39 -2 -87 1 -107 6 -33 9 -42 6 -89 -24 -35 -23
-57 -45 -67 -69 -8 -20 -21 -43 -28 -51 -7 -8 -21 -51 -31 -95 -37 -160 -16
-393 46 -515 36 -70 143 -130 196 -110 33 13 38 8 28 -22 -4 -13 -7 -27 -6
-31 5 -17 -33 -66 -54 -71 -13 -3 -25 -15 -29 -26 -3 -11 -21 -41 -39 -67 -18
-27 -31 -53 -29 -60 2 -6 -5 -30 -16 -52 -12 -22 -21 -53 -21 -70 0 -26 -4
-30 -40 -36 -43 -7 -50 -18 -35 -56 5 -12 -2 -20 -26 -28 -23 -8 -30 -16 -26
-28 12 -44 11 -48 -10 -51 -33 -5 -49 -28 -32 -49 11 -12 11 -17 2 -20 -7 -3
-23 -13 -35 -23 -22 -18 -22 -19 -5 -38 18 -20 18 -20 -12 -27 -39 -8 -46 -21
-28 -48 13 -21 13 -22 -16 -32 -36 -12 -43 -27 -23 -48 14 -13 12 -16 -14 -27
-31 -13 -39 -37 -18 -58 9 -9 8 -12 -5 -12 -9 0 -25 -9 -35 -20 -19 -20 -19
-20 -103 19 -46 22 -131 56 -189 75 -58 20 -118 46 -135 58 -35 26 -102 40
-210 43 -44 1 -146 7 -226 13 -161 13 -364 3 -507 -23 -46 -9 -92 -13 -102
-10 -23 7 -56 -9 -70 -34 -7 -15 -3 -28 20 -59 53 -74 61 -76 200 -58 67 9
178 16 247 16 130 0 312 -17 326 -30 5 -4 6 -27 2 -51 l-7 -44 -40 3 c-22 3
-45 -1 -50 -6 -8 -8 -19 -7 -38 3 -15 8 -58 17 -95 21 -56 6 -70 4 -80 -9 -10
-14 -15 -14 -56 -1 -52 18 -156 15 -169 -6 -5 -8 -17 -10 -34 -6 -46 11 -156
-5 -176 -26 -12 -13 -25 -17 -42 -13 -39 10 -150 -14 -175 -37 -12 -11 -26
-17 -32 -14 -6 4 -44 -3 -85 -15 -53 -15 -80 -29 -91 -45 -9 -14 -21 -21 -30
-17 -18 6 -165 -55 -165 -69 0 -17 -28 -38 -50 -38 -28 0 -114 -44 -140 -72
-11 -12 -20 -30 -20 -39 0 -12 -6 -16 -19 -12 -18 4 -78 -22 -112 -49 -28 -23
-50 -65 -43 -83 6 -14 3 -16 -14 -11 -28 9 -68 -13 -117 -63 -37 -39 -39 -43
-28 -72 12 -30 12 -30 -19 -24 -27 6 -35 1 -84 -49 -36 -37 -54 -64 -54 -81 0
-14 5 -25 10 -25 6 0 10 -7 10 -15 0 -11 -7 -13 -28 -9 -25 5 -35 -1 -71 -43
-55 -61 -67 -90 -47 -112 20 -22 8 -38 -29 -43 -25 -2 -36 -14 -69 -71 -37
-65 -38 -68 -20 -82 25 -18 8 -49 -28 -53 -21 -2 -31 -15 -52 -61 -30 -68 -32
-80 -10 -95 20 -15 8 -45 -23 -57 -24 -9 -58 -74 -70 -131 -4 -21 -2 -28 11
-28 30 0 17 -50 -16 -63 -10 -4 -24 -29 -33 -64 -9 -32 -19 -66 -21 -75 -3
-10 3 -19 16 -23 24 -8 20 -37 -11 -70 -33 -37 -52 -165 -24 -165 22 0 19 -46
-4 -69 -13 -13 -21 -41 -26 -91 -7 -67 -6 -72 14 -77 17 -4 21 -13 21 -44 0
-28 -4 -39 -15 -39 -13 0 -15 -13 -13 -77 3 -72 5 -78 25 -81 18 -3 23 -10 23
-34 0 -17 -7 -36 -16 -42 -13 -10 -15 -24 -9 -80 6 -57 11 -69 30 -76 27 -10
39 -58 20 -80 -10 -12 -11 -27 -3 -70 12 -68 24 -90 47 -90 24 0 34 -38 16
-56 -12 -12 -10 -26 12 -89 21 -65 28 -75 48 -75 28 0 43 -34 25 -55 -13 -16
-2 -61 32 -129 16 -32 24 -37 44 -33 32 6 53 -27 27 -41 -15 -9 -13 -17 21
-87 38 -76 39 -77 71 -72 23 4 35 1 39 -8 3 -8 1 -17 -4 -20 -19 -12 -9 -43
32 -104 41 -62 42 -63 80 -57 23 4 38 2 38 -4 0 -5 -4 -10 -10 -10 -18 0 -10
-36 18 -81 44 -67 65 -83 105 -75 33 6 33 5 29 -23 -3 -24 4 -38 43 -80 52
-55 78 -69 100 -51 11 9 17 5 28 -22 15 -35 86 -104 122 -118 12 -4 26 -3 34
4 11 8 16 6 25 -9 33 -58 144 -127 170 -106 11 9 18 8 30 -4 9 -9 16 -20 16
-24 0 -5 32 -23 71 -41 52 -24 74 -29 82 -21 17 17 34 13 60 -15 27 -28 152
-70 162 -53 9 14 42 11 59 -6 30 -31 115 -40 361 -39 301 1 480 24 873 111 12
3 22 12 22 19 0 9 12 14 37 14 42 0 173 57 173 75 0 7 17 15 38 19 20 3 61 22
90 41 42 29 52 40 47 56 -6 17 -3 19 17 14 17 -4 43 7 95 40 62 40 71 49 63
65 -10 19 4 30 38 30 27 0 133 89 130 108 -4 25 10 42 34 42 30 0 121 96 113
120 -5 14 3 25 32 43 56 35 113 109 102 129 -7 12 -2 22 17 37 15 12 30 21 35
21 13 0 71 110 65 125 -3 8 12 32 35 56 51 53 84 116 70 133 -11 13 20 76 37
76 12 0 55 107 49 122 -5 14 19 79 32 88 14 9 43 109 35 122 -13 21 -4 72 16
88 23 19 45 117 30 135 -12 15 -2 76 16 90 14 12 26 135 13 135 -5 0 -9 9 -9
20 0 18 4 20 32 15 66 -12 196 -10 210 3 19 19 15 235 -6 347 -9 50 -31 143
-47 207 -24 94 -28 120 -18 135 9 15 8 26 -5 51 -9 18 -19 52 -21 77 -3 25 -9
53 -15 62 -6 10 -24 71 -40 135 -34 136 -82 269 -151 418 -26 58 -50 126 -54
152 -5 35 -15 57 -40 84 -19 20 -38 33 -42 31 -5 -3 -34 32 -66 77 -31 45 -96
129 -143 187 -47 57 -95 116 -106 131 l-19 28 24 0 c35 0 53 24 39 55 -10 22
-9 24 16 27 23 3 27 7 26 34 -1 25 4 32 28 42 31 11 32 18 13 64 -5 13 0 17
22 20 26 3 28 6 26 40 -2 31 1 37 20 40 18 2 22 9 21 40 -1 33 2 37 25 40 23
3 26 7 24 35 -2 26 1 32 20 35 19 3 22 9 21 41 l-1 38 40 -3 c39 -3 42 -1 67
42 36 61 67 69 154 40 50 -16 67 -27 71 -43 43 -192 60 -263 90 -365 19 -67
44 -146 56 -176 16 -45 18 -58 8 -74 -15 -24 -5 -52 19 -52 22 0 43 -46 118
-257 l53 -152 -40 -68 c-75 -130 -105 -258 -80 -349 30 -111 136 -182 286
-193 l85 -6 29 -61 28 -60 -33 -46 c-33 -44 -36 -45 -99 -52 -120 -12 -126
-15 -146 -62 -27 -60 -37 -197 -31 -426 l5 -197 66 -59 c74 -66 717 -620 743
-640 12 -10 98 -14 357 -18 301 -4 341 -3 341 11 0 12 -20 15 -117 17 -65 1
73 5 307 8 272 4 435 11 451 18 28 11 39 42 55 152 9 65 19 73 76 65 l48 -7 0
35 0 34 85 5 c65 3 92 9 113 25 27 20 31 20 122 6 121 -18 143 -15 150 17 9
39 58 39 98 2 22 -20 47 -32 79 -36 71 -10 80 -15 86 -38 5 -18 11 -20 54 -15
26 4 71 11 98 16 67 13 185 14 185 1 0 -5 -5 -10 -10 -10 -6 0 -15 -11 -22
-25 -8 -19 -8 -28 2 -40 19 -23 53 -15 60 15 l6 24 12 -29 c7 -17 14 -41 17
-55 4 -24 38 -60 56 -60 5 0 17 15 25 34 15 30 21 34 68 39 28 2 111 -3 184
-12 l134 -16 13 -39 c16 -45 29 -56 70 -56 l29 0 -22 -16 c-12 -8 -22 -24 -22
-35 0 -35 57 -136 80 -142 16 -4 20 -11 16 -24 -10 -32 69 -152 112 -169 1 -1
5 -11 7 -24 4 -23 39 -73 71 -102 27 -24 56 -54 121 -126 36 -39 68 -65 85
-69 15 -3 28 -11 28 -17 0 -27 132 -129 183 -141 15 -4 25 -12 24 -18 -2 -13
149 -96 175 -97 9 0 32 -9 50 -19 18 -11 98 -36 178 -56 125 -32 167 -38 315
-45 235 -10 425 1 547 34 161 43 328 115 328 142 0 16 31 34 58 34 10 0 30 12
43 27 14 16 40 39 59 53 67 49 170 154 170 172 0 11 7 18 19 18 20 0 108 103
129 153 6 15 16 27 21 27 5 0 31 32 56 70 35 52 45 77 41 94 -4 18 -1 25 13
29 33 8 97 156 69 158 -7 0 -3 5 9 11 14 7 31 35 47 80 32 85 32 91 1 108 -14
7 -25 17 -25 20 0 13 24 28 50 32 26 3 39 35 55 126 7 41 6 43 -24 55 -41 15
-39 31 6 54 40 19 37 13 56 135 5 36 4 38 -26 46 -26 7 -33 14 -35 39 -3 27 0
32 26 38 36 8 41 24 35 108 -5 62 -7 65 -34 71 -24 5 -29 10 -29 36 0 26 5 33
31 42 25 9 29 14 25 37 -3 14 -7 47 -11 72 -5 44 -8 47 -40 53 -50 10 -57 42
-17 76 l31 26 -18 69 c-16 67 -19 70 -53 79 -47 12 -55 39 -20 66 25 20 26 22
13 68 -21 79 -42 107 -84 110 -30 3 -37 7 -37 24 0 11 8 22 19 25 33 9 31 28
-12 104 -39 69 -44 74 -79 77 -44 4 -46 8 -17 38 l21 22 -42 66 c-23 36 -50
68 -61 71 -10 4 -19 13 -19 22 0 8 -21 44 -46 80 -37 52 -49 63 -66 57 -13 -4
-18 -2 -14 4 9 15 -67 107 -105 125 -19 9 -40 25 -46 36 -7 11 -38 32 -68 46
-30 15 -55 31 -55 36 0 6 -12 21 -26 36 -14 14 -24 26 -22 28 2 2 67 41 145
88 l141 85 37 -55 c28 -42 34 -58 24 -64 -18 -11 2 -58 123 -284 105 -197 198
-354 220 -373 14 -11 54 -6 638 72 233 32 239 33 246 50 6 16 -232 664 -252
685 -14 16 -111 7 -337 -31 -70 -11 -130 -19 -133 -16 -2 3 -13 28 -23 56
l-19 50 30 29 c63 59 86 162 53 241 -17 39 -52 82 -68 82 -5 0 -21 9 -36 19
-38 27 -89 39 -245 56 -168 19 -198 32 -251 112 -84 127 -238 245 -392 298
-137 48 -293 55 -395 19 -29 -10 -107 -15 -287 -18 -203 -3 -262 -7 -341 -25
-52 -11 -118 -21 -146 -21 -34 0 -56 -5 -64 -15 -7 -8 -23 -15 -35 -15 -24 0
-136 -59 -170 -89 -11 -10 -56 -38 -100 -63 -162 -90 -207 -125 -340 -258
-144 -145 -224 -240 -282 -332 -20 -32 -42 -58 -48 -58 -7 0 -52 39 -100 86
-78 78 -91 87 -132 92 -33 3 -47 10 -53 26 -19 44 -40 57 -131 81 -102 28
-103 28 -169 39 -25 5 -53 13 -64 18 -10 6 -49 10 -87 9 l-68 -1 -10 38 c-6
20 -17 77 -25 125 -9 48 -20 96 -26 107 -5 10 -14 30 -20 44 l-9 25 107 -6
c59 -3 111 -9 117 -14 5 -5 21 -9 36 -9 31 0 70 35 111 103 16 26 37 47 46 47
98 1 371 22 408 31 27 7 72 11 101 10 51 -2 53 -1 121 64 39 36 89 90 112 120
33 42 48 55 73 57 37 4 49 34 21 55 -16 12 -15 17 14 81 18 38 32 74 32 81 0
7 17 28 38 46 20 19 34 35 30 36 -5 1 -14 2 -20 3 -7 0 -28 29 -46 64 -40 74
-29 74 -207 10 -159 -57 -275 -82 -588 -128 -353 -52 -550 -92 -667 -136 -33
-13 -79 -17 -171 -18 -139 -1 -158 -8 -183 -69 l-12 -27 -55 46 c-213 182
-456 332 -697 428 -280 113 -637 198 -935 225 -76 7 -114 14 -127 26 -53 48
-285 65 -420 31 -82 -20 -110 -38 -110 -70 -1 -14 -17 -31 -48 -51 -26 -16
-57 -36 -69 -44 -19 -13 -26 -13 -62 4 -54 24 -64 57 -28 91 35 32 42 60 22
90 l-16 25 65 29 c51 23 69 38 87 69 12 22 45 56 74 75 85 59 138 117 179 196
87 168 149 269 210 345 36 44 109 135 162 202 115 147 212 253 277 305 53 41
67 46 67 23 0 -8 9 -15 20 -15 11 0 23 7 26 15 4 9 19 15 41 15 26 0 41 -8 63
-32 l29 -31 78 14 c68 13 78 18 81 37 l3 23 31 -27 c24 -19 38 -24 57 -19 14
3 40 6 57 5 24 0 38 7 57 29 14 17 27 35 29 41 3 10 431 88 503 91 22 1 51 -1
65 -5 35 -10 59 12 71 63 13 58 -10 141 -47 170 -32 25 -39 25 -86 -1z m-1404
-389 c20 -12 34 -25 31 -29 -10 -17 -324 -115 -334 -105 -26 27 -11 38 119 95
74 32 138 59 142 59 4 1 23 -8 42 -20z m-852 -233 c-39 -11 -45 -6 -36 28 l6
26 31 -22 31 -22 -32 -10z m721 11 c-4 -8 -25 -33 -45 -57 -36 -42 -38 -43
-38 -18 0 15 -2 32 -5 40 -4 9 9 19 37 30 55 20 61 21 51 5z m-379 -470 c-3
-8 -18 -24 -35 -36 -25 -18 -37 -21 -79 -15 -67 9 -60 25 21 46 82 21 100 22
93 5z m-534 -77 c0 -5 -4 -10 -10 -10 -5 0 -10 5 -10 10 0 6 5 10 10 10 6 0
10 -4 10 -10z m630 -39 c0 -14 -73 -99 -113 -132 l-35 -29 15 38 c8 21 27 46
41 55 15 8 40 29 56 46 32 33 36 36 36 22z m-1526 -133 c-8 -23 -18 -46 -23
-52 -18 -24 -49 -124 -56 -184 -4 -34 -11 -65 -16 -68 -10 -6 -4 60 17 166 17
88 57 180 78 180 13 0 13 -5 0 -42z m856 2 c-6 -11 -17 -20 -26 -20 -12 0 -12
4 -4 20 6 11 17 20 26 20 12 0 12 -4 4 -20z m-369 -6 c10 -6 -2 -44 -13 -44
-5 0 -24 14 -41 32 l-32 31 40 -7 c22 -4 43 -10 46 -12z m-581 -85 c-11 -40
-20 -86 -20 -101 0 -16 -5 -28 -11 -28 -14 0 -6 50 23 142 29 89 34 80 8 -13z
m-30 -191 c0 -16 -3 -19 -11 -11 -6 6 -8 16 -5 22 11 17 16 13 16 -11z m3
-105 c4 -32 9 -73 13 -90 4 -20 2 -33 -4 -33 -10 0 -32 104 -32 153 0 50 17
27 23 -30z m51 -201 c11 -26 35 -73 54 -105 34 -59 37 -81 6 -56 -19 15 -78
136 -89 182 -12 44 8 31 29 -21z m601 -78 c9 -25 23 -48 31 -51 8 -3 14 -10
14 -16 0 -17 -50 -77 -64 -77 -7 0 -21 -18 -31 -40 -10 -22 -26 -47 -36 -56
-18 -16 -19 -15 -19 37 0 30 5 60 12 67 7 7 8 12 3 12 -4 0 0 9 10 21 12 13
18 32 17 55 -2 32 23 94 39 94 3 0 14 -21 24 -46z m-196 -329 c-21 -42 -39
-58 -39 -35 0 5 12 35 28 66 20 43 28 51 30 35 2 -12 -7 -41 -19 -66z m4579
-287 c-3 -25 -43 -37 -60 -20 -19 19 0 42 32 42 27 0 31 -3 28 -22z m-4183
-66 c-1 -2 -20 -6 -40 -9 -28 -4 -36 -3 -31 5 4 7 16 12 27 12 21 0 25 10 8
27 -7 7 -5 16 8 28 17 18 18 17 24 -21 4 -21 6 -40 4 -42z m4010 38 c-3 -5
-18 -10 -33 -10 -21 0 -24 2 -12 10 20 13 53 13 45 0z m-4517 -32 c17 -17 15
-28 -7 -28 -23 0 -45 -25 -38 -44 3 -7 -6 -23 -19 -35 -20 -18 -24 -28 -19
-51 5 -24 3 -29 -17 -32 -19 -2 -23 -9 -23 -37 0 -26 -5 -36 -24 -42 -19 -8
-22 -14 -18 -38 5 -25 2 -30 -18 -35 -19 -5 -25 -13 -25 -34 0 -20 -8 -32 -30
-44 -17 -9 -30 -15 -30 -13 0 2 -3 10 -6 19 -5 12 0 16 21 16 26 0 27 2 22 33
-5 30 -2 35 24 44 26 10 28 14 19 38 -13 34 -14 33 13 37 19 3 22 8 20 40 -2
33 0 37 25 40 28 3 29 7 17 46 -5 17 -2 22 13 22 27 0 46 25 34 45 -6 12 -3
24 12 41 24 27 36 30 54 12z m472 -100 c0 -13 -32 -6 -37 9 -3 7 3 9 16 6 12
-3 21 -10 21 -15z m300 -20 c-1 -7 -7 -24 -15 -38 l-14 -25 -1 31 c0 17 3 34
7 37 10 11 23 8 23 -5z m3121 -41 c-8 -8 -11 -7 -11 4 0 20 13 34 18 19 3 -7
-1 -17 -7 -23z m69 29 c0 -11 -19 -15 -25 -6 -3 5 1 10 9 10 9 0 16 -2 16 -4z
m-3102 -93 c33 -80 34 -88 13 -125 -11 -19 -27 -61 -34 -93 l-14 -60 -28 118
c-25 107 -27 119 -12 135 9 9 20 29 26 45 15 38 26 34 49 -20z m2802 -73 c0
-6 21 -33 47 -61 25 -27 44 -51 42 -54 -3 -2 -18 2 -34 9 -17 8 -56 19 -87 26
-32 7 -58 15 -58 16 0 7 75 73 83 74 4 0 7 -5 7 -10z m-2393 -70 c86 -43 213
-80 270 -80 18 0 33 -4 33 -10 0 -5 -5 -10 -11 -10 -9 0 -10 -21 -5 -72 4 -47
2 -90 -6 -121 -11 -43 -10 -50 9 -75 15 -20 33 -29 72 -36 46 -8 55 -6 82 13
24 18 29 19 29 6 0 -9 -7 -18 -15 -21 -20 -8 -19 -24 3 -40 16 -12 15 -15 -13
-38 -28 -23 -29 -25 -10 -31 11 -4 29 -10 40 -15 22 -9 16 -13 -37 -24 -45
-10 -34 -34 19 -42 l48 -7 -48 -14 c-35 -10 -47 -18 -45 -31 3 -14 -9 -18 -77
-24 -44 -3 -80 -5 -81 -5 0 1 -52 96 -114 212 -62 115 -126 231 -141 257 -16
27 -29 53 -29 59 0 6 -11 25 -24 42 -39 52 -54 91 -49 120 3 15 8 27 11 27 4
0 43 -18 89 -40z m2640 -2 c6 -7 13 -33 17 -56 10 -64 -16 -50 -30 16 -12 51
-7 65 13 40z m-3287 -40 c6 -24 29 -109 50 -190 22 -81 40 -150 39 -155 -2
-24 -69 209 -103 360 -10 44 2 31 14 -15z m2691 -98 c20 -14 106 -81 190 -149
153 -124 245 -189 329 -231 25 -13 63 -34 84 -48 46 -29 43 -32 -63 -57 l-75
-18 -15 24 c-33 49 -76 91 -115 111 -55 29 -154 30 -215 2 l-44 -19 -98 97
c-92 92 -129 140 -129 170 0 7 -37 51 -82 98 l-83 85 85 5 c75 4 91 2 140 -20
30 -14 71 -36 91 -50z m2559 41 c0 -78 76 -244 139 -306 23 -21 41 -42 41 -45
0 -6 -95 -35 -170 -51 -30 -6 -61 -16 -68 -22 -16 -13 -17 -12 -30 57 -16 80
-15 84 10 88 32 4 57 110 41 171 -7 26 -8 46 -2 52 5 5 9 28 9 52 0 34 3 41
15 37 8 -4 15 -18 15 -33z m-2854 -43 c42 -43 78 -90 87 -115 l16 -42 -44 20
c-24 11 -78 28 -119 38 -70 18 -82 25 -150 88 l-73 68 61 6 c154 14 144 17
222 -63z m-1393 45 c3 -5 -1 -13 -7 -19 -10 -9 -16 -7 -24 7 -10 16 -9 19 7
19 11 0 22 -3 24 -7z m1073 -21 c-9 -9 -37 8 -31 18 5 8 11 7 21 -1 8 -6 12
-14 10 -17z m-3935 7 c44 -15 41 -12 49 -65 7 -43 6 -45 -14 -39 -12 3 -36 8
-53 12 -32 5 -33 7 -33 54 0 53 1 54 51 38z m990 -4 c-2 -16 -54 -26 -63 -12
-5 8 2 14 20 18 33 8 44 6 43 -6z m2204 -9 c-47 -22 -120 -89 -144 -133 -13
-26 -61 -39 -72 -21 -15 23 -10 57 11 78 24 24 26 53 5 74 -8 8 -15 17 -15 20
0 3 60 6 133 6 l132 0 -50 -24z m500 4 c-3 -5 -11 -10 -16 -10 -6 0 -7 5 -4
10 3 6 11 10 16 10 6 0 7 -4 4 -10z m-3253 -202 c-1 -9 2 -19 8 -23 5 -3 10
-10 10 -16 0 -14 -34 -11 -56 6 -23 18 -56 19 -72 3 -9 -9 -12 -8 -12 5 0 9
-18 26 -41 37 -38 20 -78 79 -79 118 0 8 48 -12 123 -50 89 -46 121 -68 119
-80z m512 133 c7 -11 -52 -23 -68 -14 -9 6 10 14 56 22 4 0 9 -3 12 -8z m1906
-22 c0 -11 -4 -17 -10 -14 -5 3 -10 13 -10 21 0 8 5 14 10 14 6 0 10 -9 10
-21z m2098 -28 c78 -39 230 -92 442 -152 96 -27 195 -57 219 -66 38 -14 41
-17 25 -26 -10 -6 -46 -11 -79 -11 -34 -1 -68 -6 -76 -13 -8 -6 -35 -14 -60
-18 -44 -7 -52 -4 -185 71 -154 85 -285 169 -326 209 -48 44 -39 46 40 6z
m-2506 -241 c70 -129 127 -238 128 -242 0 -3 -13 -9 -28 -13 -27 -5 -185 -89
-244 -129 l-27 -17 -50 156 c-28 86 -53 172 -55 191 -3 20 -9 41 -14 47 -9 10
-42 123 -42 140 0 4 11 -5 25 -18 13 -14 33 -25 44 -25 22 0 75 69 93 121 7
19 16 29 27 27 9 -2 67 -98 143 -238z m-1547 199 c-8 -12 -55 -12 -55 0 0 10
39 20 53 13 4 -2 5 -8 2 -13z m3445 -100 c56 -30 59 -33 53 -63 -3 -17 -16
-41 -29 -53 -13 -12 -24 -31 -24 -43 0 -21 -18 -32 -76 -44 l-31 -7 1 43 c1
24 4 48 8 54 4 6 -2 18 -13 27 -10 9 -19 27 -19 39 0 13 -9 43 -20 67 -11 24
-20 45 -20 47 0 7 115 -38 170 -67z m3652 -96 c109 -54 180 -74 298 -80 94 -5
151 1 240 23 14 3 -21 -22 -78 -56 -99 -60 -103 -62 -127 -46 -13 9 -36 16
-50 16 -14 0 -25 4 -25 10 0 11 -84 52 -155 75 -27 9 -63 22 -80 30 -16 7 -43
17 -60 21 -28 7 -45 20 -45 37 0 11 4 10 82 -30z m-1377 -87 c8 -54 13 -101
11 -104 -4 -4 -122 35 -135 44 -1 2 21 42 50 90 29 48 54 84 56 78 1 -5 9 -54
18 -108z m-7117 -215 c9 -6 12 -20 7 -47 -10 -61 -129 -474 -136 -474 -4 0
-28 28 -54 63 l-47 62 4 178 c5 174 5 178 29 195 34 24 170 40 197 23z m7035
-16 c9 -4 17 -8 17 -10 0 -2 -16 -19 -36 -39 -19 -19 -33 -40 -29 -46 8 -13
-4 -13 -43 1 -23 8 -31 18 -36 44 -11 57 4 73 61 65 26 -4 56 -11 66 -15z
m-6888 -5 c-4 -11 -2 -20 4 -20 6 0 11 -21 11 -50 0 -47 2 -50 25 -50 23 0 25
4 25 45 0 34 4 45 16 45 11 0 14 6 9 20 -9 28 25 27 52 -2 16 -17 21 -37 22
-78 0 -84 -68 -802 -79 -828 -6 -13 -16 -22 -23 -20 -16 6 -315 389 -316 406
-2 21 110 403 137 469 26 64 46 81 95 82 24 1 27 -2 22 -19z m-414 -6 c16 -19
27 -340 12 -331 -18 11 -163 205 -163 217 0 7 -9 23 -20 37 -11 14 -20 31 -20
38 0 10 94 39 171 54 4 0 12 -6 20 -15z m735 -35 c97 -30 125 -62 127 -148 2
-61 -2 -73 -51 -171 -106 -212 -277 -529 -280 -521 -6 17 68 756 78 779 6 13
10 34 10 47 0 40 23 43 116 14z m1069 10 c11 -17 -1 -21 -15 -4 -8 9 -8 15 -2
15 6 0 14 -5 17 -11z m-1990 -96 c24 -24 79 -91 122 -149 l77 -104 -3 -213
c-1 -118 -6 -237 -9 -265 l-7 -51 -210 326 c-115 180 -212 334 -215 342 -3 9
-12 28 -19 43 -8 15 -11 34 -8 43 4 8 39 31 79 50 94 45 131 41 193 -22z
m3881 18 c18 -14 48 -20 126 -25 121 -8 158 -14 158 -27 0 -5 -6 -9 -12 -9
-64 0 -122 -49 -60 -51 15 0 36 -4 47 -9 16 -7 14 -9 -15 -9 -77 -2 -78 -40
-2 -42 l47 -1 -36 -9 c-20 -4 -71 -22 -113 -39 -42 -16 -80 -30 -85 -30 -5 0
-30 51 -56 113 -71 167 -68 157 -44 157 12 0 32 -8 45 -19z m-2771 -11 c3 -5
-4 -26 -15 -47 -12 -21 -19 -30 -16 -20 3 10 6 32 6 48 0 28 13 39 25 19z
m2583 -167 c40 -86 69 -159 65 -163 -11 -9 -239 -105 -285 -120 -21 -6 -41 -9
-46 -6 -16 9 -114 256 -109 270 8 21 116 91 209 136 45 22 85 40 88 40 3 0 38
-71 78 -157z m-3978 56 c18 -23 131 -195 252 -383 185 -289 218 -347 218 -378
0 -24 -5 -38 -12 -37 -7 0 -123 28 -258 62 l-244 62 -93 235 c-51 129 -93 243
-93 253 0 10 -5 27 -11 38 -19 36 15 90 90 142 84 59 108 60 151 6z m8805 -46
c-3 -10 -9 -31 -12 -47 -6 -27 -7 -28 -20 -11 -16 23 -17 47 -1 63 19 19 41
15 33 -5z m95 8 c0 -6 -4 -13 -10 -16 -18 -11 -11 -25 13 -25 12 0 28 -4 36
-9 10 -7 7 -12 -15 -22 -43 -22 -42 -39 3 -40 l38 -1 -33 -14 c-39 -17 -38
-38 3 -42 28 -4 28 -4 5 -15 -32 -17 -30 -31 5 -37 28 -6 29 -7 8 -14 -34 -11
-28 -34 10 -38 l32 -4 -30 -13 c-16 -7 -31 -8 -32 -4 -2 5 -30 51 -63 102 -33
51 -60 98 -60 105 0 24 29 70 52 83 28 15 38 16 38 4z m-7214 -39 c-9 -9 -37
8 -31 18 5 8 11 7 21 -1 8 -6 12 -14 10 -17z m6870 -24 c16 -12 44 -35 62 -52
l32 -30 0 -115 c0 -70 -4 -111 -9 -106 -17 18 -151 282 -151 298 0 13 12 24
31 26 4 1 19 -9 35 -21z m-96 -31 c0 -9 -10 -12 -31 -9 -22 3 -27 7 -18 13 21
13 49 11 49 -4z m-8737 -37 c6 -16 14 -30 18 -30 8 0 193 -459 187 -465 -8 -8
-152 33 -162 47 -6 7 -46 57 -88 110 -42 52 -87 113 -98 134 -12 22 -25 43
-29 47 -17 18 5 63 62 123 67 72 93 80 110 34z m9546 -11 c33 -22 63 -45 66
-49 8 -13 -18 -58 -60 -105 -33 -38 -35 -39 -29 -12 6 25 4 27 -22 27 l-29 0
24 19 c25 19 22 41 -7 41 -14 0 -13 2 3 13 22 17 12 37 -18 37 -22 0 -22 1 3
20 l25 19 -28 10 c-31 12 -35 21 -8 21 10 0 46 -18 80 -41z m-8709 -68 c22
-30 40 -59 40 -65 0 -18 -99 -358 -106 -365 -4 -3 -4 12 -1 34 4 22 7 134 7
248 1 115 5 207 10 205 5 -2 27 -27 50 -57z m8170 -39 c0 -19 -46 -161 -55
-170 -3 -3 -5 53 -5 124 l1 129 29 -33 c17 -18 30 -40 30 -50z m-5213 -79
c-10 -9 -57 26 -57 42 0 7 5 26 11 42 l11 28 20 -53 c12 -29 18 -55 15 -59z
m2290 81 c-9 -9 -28 6 -21 18 4 6 10 6 17 -1 6 -6 8 -13 4 -17z m3619 -20 c30
-26 54 -50 54 -55 0 -11 -210 -152 -217 -145 -14 14 -15 97 -1 118 26 39 98
128 104 128 3 0 30 -21 60 -46z m-4911 16 l30 -7 -40 -7 c-68 -12 -71 -14 -39
-15 42 -1 46 -9 22 -42 -15 -20 -28 -27 -40 -23 -11 3 -26 -4 -42 -21 l-25
-27 -31 22 c-35 25 -56 59 -43 70 17 17 129 59 153 58 14 0 39 -4 55 -8z m970
0 c3 -5 2 -10 -4 -10 -5 0 -13 5 -16 10 -3 6 -2 10 4 10 5 0 13 -4 16 -10z
m190 -10 c3 -5 1 -10 -4 -10 -6 0 -11 5 -11 10 0 6 2 10 4 10 3 0 8 -4 11 -10z
m105 -11 c0 -6 -4 -7 -10 -4 -5 3 -10 11 -10 16 0 6 5 7 10 4 6 -3 10 -11 10
-16z m-368 -20 c57 -6 112 -14 123 -19 11 -5 48 -11 83 -14 35 -3 110 -19 167
-36 57 -16 116 -30 131 -30 l29 0 -37 35 c-21 18 -38 37 -38 41 0 4 11 -2 23
-14 26 -25 118 -47 238 -58 l77 -7 6 -36 c3 -20 6 -67 6 -104 l0 -69 248 5
c136 3 260 8 275 12 28 7 28 7 15 -14 -13 -22 -15 -22 -253 -20 -224 2 -535
-11 -667 -29 -63 -9 -68 -5 -68 48 0 16 7 30 15 34 16 6 20 43 7 63 -7 11 -60
22 -139 28 -21 2 -69 6 -108 10 -52 6 -79 4 -105 -7 -19 -8 -52 -13 -72 -10
-30 3 -39 10 -47 33 -5 16 -14 29 -19 29 -11 0 -52 94 -52 120 0 24 14 25 162
9z m3378 -51 c46 -98 85 -268 62 -268 -4 0 -42 35 -85 78 l-78 78 28 87 c15
48 32 87 36 87 4 0 21 -28 37 -62z m-7862 -353 c-2 -1 -38 -25 -80 -53 -93
-60 -146 -71 -232 -48 -32 8 -59 16 -60 18 -34 48 -46 69 -46 83 0 9 18 80 40
158 23 78 48 166 56 195 l15 53 155 -202 c85 -110 154 -202 152 -204z m1032
376 c0 -37 -34 -81 -50 -65 -9 9 -6 22 9 53 25 48 41 53 41 12z m6654 -32 c20
-33 36 -63 36 -65 0 -8 -32 17 -79 59 -40 36 -42 39 -24 52 10 8 21 15 24 15
4 0 23 -27 43 -61z m-2809 41 c3 -5 2 -10 -4 -10 -5 0 -13 5 -16 10 -3 6 -2
10 4 10 5 0 13 -4 16 -10z m-6241 -53 c65 -68 180 -217 167 -217 -20 0 -250
59 -300 76 -28 11 -51 24 -51 31 0 21 91 152 109 156 9 3 18 5 20 6 2 0 27
-23 55 -52z m8952 31 c16 -12 53 -44 82 -72 60 -58 63 -71 29 -171 -22 -65
-27 -71 -73 -95 -27 -14 -70 -40 -96 -58 -52 -35 -59 -37 -76 -20 -9 9 -8 14
3 22 13 10 12 27 -8 138 -14 78 -20 131 -14 137 5 5 4 17 -3 30 -6 12 -8 26
-5 31 3 6 3 16 -2 23 -4 6 -8 22 -8 35 -1 21 3 22 71 22 58 0 77 -4 100 -22z
m461 -4 c-3 -3 -12 -4 -19 -1 -8 3 -5 6 6 6 11 1 17 -2 13 -5z m629 -137 l56
-77 -58 -145 -58 -145 -72 0 -73 0 -65 67 c-64 65 -78 96 -62 135 4 9 3 44 -2
78 l-9 62 121 80 120 80 24 -29 c13 -15 48 -63 78 -106z m-7540 18 c23 -38 45
-88 49 -111 6 -40 4 -44 -102 -185 -60 -79 -131 -172 -158 -207 l-50 -63 -50
6 c-27 3 -78 11 -112 16 l-63 11 102 201 c114 227 162 292 209 282 60 -13 103
26 79 71 -11 19 -10 26 0 39 25 30 52 13 96 -60z m2064 35 l0 -41 -35 7 c-36
6 -92 -4 -173 -34 -23 -8 -45 -12 -49 -8 -3 3 7 10 23 16 16 6 72 30 124 54
52 24 98 44 103 45 4 1 7 -17 7 -39z m3968 -5 c-20 -11 -26 -21 -24 -41 2 -14
9 -29 15 -34 7 -4 11 -15 9 -25 -2 -13 -10 -6 -26 24 -22 39 -23 43 -8 66 10
15 26 25 39 25 21 -1 21 -2 -5 -15z m-6168 -30 c0 -8 -4 -15 -10 -15 -5 0 -10
7 -10 15 0 8 5 15 10 15 6 0 10 -7 10 -15z m6794 -94 c36 -69 36 -69 13 -75
-63 -17 -67 -12 -67 69 0 41 4 75 9 75 5 0 25 -31 45 -69z m-7279 35 c17 -12
16 -17 -25 -97 -23 -46 -46 -88 -51 -93 -16 -18 -10 113 7 147 31 60 39 65 69
43z m6638 -41 c15 -24 31 -61 34 -81 5 -33 4 -37 -11 -31 -10 4 -29 10 -42 13
-13 3 -24 14 -25 23 0 9 -4 40 -8 69 -11 78 6 80 52 7z m-8469 -21 c76 -18
145 -39 154 -46 14 -12 270 -339 286 -365 4 -8 2 -11 -6 -8 -7 2 -175 47 -373
100 -198 53 -364 100 -370 105 -5 4 -22 10 -37 14 -19 4 -28 13 -28 27 0 34
69 172 98 196 34 29 80 25 276 -23z m9211 -34 c3 -4 -3 -11 -12 -14 -18 -7
-33 7 -60 58 l-15 30 41 -33 c22 -18 43 -36 46 -41z m-1935 16 c0 -25 -21 -36
-72 -36 -33 0 -34 3 -10 35 12 17 27 24 50 25 27 0 32 -4 32 -24z m1756 -44
c-12 -11 -16 6 -9 39 l8 34 3 -33 c2 -19 1 -36 -2 -40z m1064 -1 l23 -50 -27
-38 c-53 -76 -94 -115 -115 -111 -19 3 -17 10 30 131 28 70 54 125 58 123 4
-3 18 -27 31 -55z m-9810 -6 l45 -11 63 -153 c34 -85 61 -155 60 -157 -3 -2
-139 172 -242 309 l-28 38 28 -7 c16 -4 49 -13 74 -19z m2300 -78 c16 -41 27
-82 24 -91 -3 -8 -19 -18 -35 -21 -42 -9 -35 -40 8 -40 18 0 40 -7 49 -16 16
-17 43 -121 44 -170 0 -25 -2 -26 -52 -23 -62 4 -400 52 -406 59 -5 4 242 320
291 373 36 37 32 40 77 -71z m4220 89 c0 -2 -7 -7 -16 -10 -8 -3 -12 -2 -9 4
6 10 25 14 25 6z m-5121 -208 c-41 -84 -45 -88 -76 -88 -18 0 -33 3 -33 6 0 4
33 70 73 147 l72 140 3 -59 c3 -53 -1 -69 -39 -146z m5201 182 c0 -5 -10 -10
-22 -10 -19 0 -20 2 -8 10 19 13 30 13 30 0z m-6274 -65 c124 -30 228 -56 231
-59 2 -2 -10 -49 -27 -104 -23 -76 -39 -109 -68 -140 l-37 -41 -102 27 c-56
15 -106 32 -111 37 -10 11 -132 315 -132 328 0 11 5 10 246 -48z m6374 40 c-7
-8 -17 -15 -22 -15 -6 0 -5 7 2 15 7 8 17 15 22 15 6 0 5 -7 -2 -15z m1510 -6
c12 -7 11 -8 -5 -9 -11 0 -30 -3 -42 -6 -19 -5 -23 -2 -23 15 0 18 4 20 28 15
15 -4 34 -10 42 -15z m-7179 -47 c-30 -42 -49 -55 -81 -56 -17 -1 -30 1 -30 4
0 7 113 80 123 80 5 0 -1 -13 -12 -28z m8838 -34 c26 -63 21 -68 -67 -68 l-64
0 34 41 c18 22 40 49 48 59 8 11 18 19 21 20 4 0 16 -23 28 -52z m-9259 22 c9
-16 8 -20 -5 -20 -8 0 -15 9 -15 20 0 11 2 20 5 20 2 0 9 -9 15 -20z m7632 -3
c9 -7 20 -25 23 -40 8 -30 3 -32 -79 -21 -42 6 -46 9 -46 35 0 21 6 29 23 32
42 8 62 6 79 -6z m-1322 -38 c0 -22 -15 -39 -35 -39 -22 0 -60 32 -50 42 9 8
85 6 85 -3z m-6276 -20 c35 -28 33 -40 -14 -67 l-40 -23 0 56 c0 62 10 68 54
34z m-1199 -24 c131 -25 729 -185 742 -198 6 -6 23 -38 37 -70 l25 -57 -233
-117 -233 -116 -226 124 c-125 68 -243 138 -262 154 -49 41 -55 87 -24 190 24
81 51 119 79 110 10 -3 52 -12 95 -20z m1278 15 c7 0 4 -5 -6 -11 -18 -11 -37
-5 -37 13 0 5 7 7 16 4 9 -3 21 -6 27 -6z m-174 -124 l-22 -21 7 25 c4 14 12
48 19 75 l12 50 3 -54 c3 -45 -1 -58 -19 -75z m7737 77 c23 -23 34 -86 17 -96
-5 -3 -48 2 -97 11 l-88 16 6 35 c3 20 6 44 6 54 0 16 7 17 66 11 51 -5 72
-13 90 -31z m1628 -35 c24 -84 30 -128 17 -128 -24 0 -277 41 -293 48 -15 6
-11 15 29 62 l45 55 77 6 c42 3 84 6 93 7 13 2 21 -12 32 -50z m-296 -18 c-12
-33 -25 -60 -29 -60 -4 0 -21 25 -37 55 -33 60 -31 63 40 64 l47 1 -21 -60z
m72 57 c0 -2 -12 -14 -26 -28 l-26 -24 13 28 c7 15 18 27 26 27 7 0 13 -1 13
-3z m-8350 -97 c0 -5 -4 -10 -9 -10 -6 0 -13 5 -16 10 -3 6 1 10 9 10 9 0 16
-4 16 -10z m448 -64 c45 -7 85 -16 88 -19 3 -3 -60 -89 -142 -191 l-147 -186
-38 51 -38 51 77 154 c86 173 69 161 200 140z m8011 -9 c170 -27 158 -13 168
-188 l6 -105 -109 -47 -109 -48 -52 55 c-51 52 -53 57 -53 109 0 45 -15 118
-46 225 -6 19 -3 22 22 22 16 -1 94 -11 173 -23z m-9409 -48 c0 -4 -21 -17
-47 -29 l-47 -22 -28 34 c-57 67 -56 67 37 45 47 -12 85 -24 85 -28z m1955
-38 c11 -5 27 -11 36 -14 18 -6 25 -38 35 -163 8 -95 -1 -119 -48 -127 -191
-33 -305 -51 -483 -77 l-210 -30 -18 22 c-9 13 -26 34 -36 48 l-19 25 154 196
154 196 208 -34 c114 -18 216 -37 227 -42z m-1956 -31 c-10 -21 -19 -44 -19
-50 0 -18 -18 -10 -38 18 l-21 27 42 22 c56 30 58 29 36 -17z m6637 -5 c9 -14
23 -25 30 -25 9 0 14 -11 14 -31 0 -29 -2 -30 -29 -24 -16 3 -48 8 -71 10 -24
3 -45 7 -47 9 -2 2 1 22 8 45 11 37 15 41 45 41 25 0 38 -7 50 -25z m-7731 -3
c45 -17 455 -239 455 -247 0 -2 -20 -15 -45 -29 l-44 -26 -178 30 c-178 31
-236 45 -262 64 -10 8 -12 33 -9 107 5 91 11 119 26 119 4 0 30 -8 57 -18z
m1029 -46 c27 -36 30 -52 20 -106 -7 -31 -8 -29 -35 46 -16 43 -29 82 -29 86
0 18 19 6 44 -26z m-29 -77 c20 -51 32 -95 28 -100 -4 -4 -63 -39 -131 -79
-145 -85 -140 -85 -286 -3 l-100 56 215 108 c118 59 219 108 225 108 7 1 28
-40 49 -90z m6775 -25 c0 -27 -4 -43 -10 -39 -5 3 -10 24 -10 46 0 21 5 39 10
39 6 0 10 -21 10 -46z m-5501 -129 c1 -14 -66 -91 -73 -84 -3 3 -3 43 1 88 l6
83 33 -38 c18 -22 33 -43 33 -49z m8125 46 l38 -39 -42 -22 c-23 -12 -44 -19
-47 -17 -4 5 6 117 11 117 1 0 19 -18 40 -39z m267 -124 c-5 -5 -30 -12 -56
-15 -44 -5 -49 -3 -91 39 l-45 44 98 46 98 46 3 -75 c2 -41 -1 -79 -7 -85z
m-9631 58 c0 -25 -6 -61 -14 -79 l-14 -33 -78 13 c-44 7 -88 13 -98 13 -15 1
-17 4 -9 12 14 14 195 118 206 119 4 0 7 -20 7 -45z m-840 2 l135 -23 -153
-77 c-184 -93 -241 -115 -253 -95 -12 19 -16 184 -5 214 6 16 119 9 276 -19z
m367 -4 c40 -21 73 -41 73 -44 0 -5 -196 24 -224 34 -9 3 56 44 74 47 3 0 38
-17 77 -37z m2561 -91 c2 -75 -1 -98 -17 -130 -19 -36 -24 -40 -93 -55 -40 -9
-130 -26 -199 -38 l-126 -20 -86 43 c-75 38 -92 52 -141 116 -31 40 -56 76
-56 80 0 10 617 97 674 96 l41 -1 3 -91z m7372 53 c24 -25 42 -45 40 -45 -3 0
-50 -7 -105 -15 -55 -7 -104 -10 -108 -6 -19 19 14 62 65 85 29 14 55 25 58
25 3 1 26 -19 50 -44z m-8167 0 c20 -25 24 -36 15 -39 -27 -9 -106 -15 -111
-9 -6 6 52 83 62 83 3 0 19 -16 34 -35z m-1794 -14 c95 -16 178 -34 183 -39
14 -14 -651 -392 -701 -399 l-39 -5 -20 88 c-17 73 -19 97 -10 130 13 47 10
45 248 168 91 47 165 85 165 85 0 1 78 -12 174 -28z m8575 -130 c16 -33 5 -90
-21 -104 -10 -6 -30 -23 -45 -39 -26 -28 -27 -28 -147 -28 l-122 0 -18 43
c-37 86 -41 76 73 168 137 110 146 112 214 41 29 -30 59 -67 66 -81z m-219
111 c-6 -4 -42 -36 -81 -70 -40 -34 -76 -62 -81 -62 -9 0 -39 98 -32 105 6 5
149 32 179 34 13 0 20 -3 15 -7z m-7841 -27 c3 -9 0 -15 -9 -15 -9 0 -12 6 -9
15 4 8 7 15 9 15 2 0 5 -7 9 -15z m9615 -12 c0 -16 -4 -36 -8 -47 -6 -16 -11
-14 -39 22 -32 40 -32 41 -10 45 52 10 58 8 57 -20z m-9769 -3 c106 -16 103
-14 85 -50 -8 -16 -18 -30 -22 -30 -3 0 -44 20 -89 46 -81 43 -104 61 -66 50
9 -2 51 -10 92 -16z m1505 -17 c17 -21 39 -48 49 -61 l19 -25 -24 13 c-13 7
-58 31 -99 54 l-75 41 35 6 c61 11 64 10 95 -28z m-1520 -48 c39 -21 71 -39
72 -40 5 -3 -209 -460 -220 -471 -16 -15 -479 -117 -548 -120 -47 -3 -61 0
-81 19 -32 30 -88 166 -88 214 0 45 -43 15 395 272 l340 198 30 -17 c17 -9 62
-34 100 -55z m9724 24 c39 -45 42 -54 36 -87 -12 -69 -38 -153 -46 -150 -11 4
-239 251 -239 259 0 3 33 11 73 16 131 18 129 19 176 -38z m-8231 -31 c99 -56
139 -84 166 -118 19 -24 33 -46 32 -48 -8 -8 -428 -72 -437 -66 -19 12 -9 130
17 200 28 76 48 104 74 104 10 0 77 -33 148 -72z m2663 36 l59 -37 0 -54 c0
-65 -13 -74 -73 -47 -42 19 -160 122 -178 156 -9 17 -4 18 62 18 64 0 77 -3
130 -36z m-3953 -60 l31 -76 -57 32 c-76 43 -76 42 -58 84 25 59 47 48 84 -40z
m9368 -65 c84 -92 128 -148 127 -160 -3 -22 -73 -179 -81 -179 -2 0 -62 31
-132 70 l-127 69 -11 92 -11 91 46 79 c25 43 49 79 53 79 3 0 65 -64 136 -141z
m-9409 9 c35 -18 63 -36 63 -39 0 -4 -20 -62 -43 -130 l-44 -124 -84 -57 c-56
-38 -98 -60 -127 -64 -39 -6 -42 -5 -35 13 20 51 199 433 203 433 2 0 32 -15
67 -32z m8123 1 c0 -5 -9 -9 -20 -9 -19 0 -27 20 -13 33 7 8 33 -11 33 -24z
m-2435 -9 c3 -5 1 -10 -4 -10 -6 0 -11 5 -11 10 0 6 2 10 4 10 3 0 8 -4 11
-10z m325 -5 c0 -10 -11 -15 -35 -15 -54 0 -43 27 13 29 13 1 22 -5 22 -14z
m-4415 -57 c5 -4 -2 -8 -17 -8 -19 0 -34 10 -50 32 l-23 32 40 -23 c22 -13 44
-28 50 -33z m461 22 c-3 -8 -12 -51 -21 -95 -20 -92 -35 -111 -74 -91 -163 80
-281 142 -281 147 0 7 301 54 347 54 24 0 32 -4 29 -15z m-1947 -33 c11 -18
29 -41 40 -51 11 -10 18 -23 15 -27 -6 -10 -150 -109 -158 -109 -7 0 68 219
76 220 3 0 16 -15 27 -33z m957 11 c-3 -13 -6 -39 -6 -59 l0 -35 -60 -10 c-33
-6 -60 -9 -60 -7 0 2 15 17 34 33 18 16 44 45 57 65 27 40 44 46 35 13z m8098
-60 c3 -32 4 -58 1 -58 -3 0 -27 12 -55 28 l-50 27 43 40 c23 22 45 36 48 30
4 -5 9 -36 13 -67z m-7280 -97 c21 -14 49 -33 61 -41 37 -23 36 -55 -2 -139
-19 -42 -36 -78 -38 -80 -10 -9 -67 52 -190 204 -74 92 -135 171 -135 175 0 5
12 10 28 12 27 4 188 -73 276 -131z m-1624 104 c0 -8 -7 -15 -15 -15 -16 0
-20 12 -8 23 11 12 23 8 23 -8z m670 0 c0 -8 -7 -15 -15 -15 -26 0 -18 20 13
29 1 1 2 -6 2 -14z m760 -160 c77 -96 143 -183 147 -193 3 -9 12 -24 19 -32
20 -23 3 -79 -50 -164 -51 -82 -74 -95 -134 -74 -20 7 -162 91 -315 187 l-278
175 3 101 3 100 210 36 c116 21 220 37 232 38 17 1 54 -38 163 -174z m6570
100 c-15 -45 -18 -42 -12 13 3 29 8 40 14 34 7 -7 6 -22 -2 -47z m49 -1 c-25
-13 -35 -5 -25 22 5 12 10 13 28 3 l21 -11 -24 -14z m797 0 c41 -23 66 -43 69
-57 5 -27 24 -191 22 -193 -1 -1 -47 27 -102 61 l-100 64 -11 66 c-11 66 -11
66 15 80 36 19 35 20 107 -21z m-8913 -64 c9 -36 14 -67 12 -69 -8 -8 -228
-51 -234 -46 -14 15 31 64 114 121 50 34 91 62 92 61 1 -1 8 -31 16 -67z m38
44 c7 -9 40 -30 73 -46 l61 -31 -50 -13 c-80 -21 -81 -21 -98 46 -15 60 -11
74 14 44z m829 -75 l0 -91 -37 23 c-21 13 -46 28 -57 33 -16 10 -61 95 -54
101 5 4 102 23 126 24 21 1 22 -2 22 -90z m7327 79 c5 -7 29 -62 53 -121 l43
-109 -64 -131 c-77 -159 -98 -197 -110 -197 -20 0 -76 28 -106 54 -25 21 -33
36 -33 59 0 32 82 363 100 404 16 38 98 66 117 41z m577 -19 c3 -17 6 -42 6
-55 0 -23 -1 -23 -58 14 l-59 37 46 17 c61 22 58 22 65 -13z m-1905 -5 c8 -7
-92 -3 -144 6 -36 6 -23 7 45 3 52 -3 97 -7 99 -9z m920 -18 c38 -62 24 -89
-62 -116 -34 -11 -40 -10 -52 7 -17 22 -75 128 -75 137 0 3 38 6 84 6 l84 0
21 -34z m534 17 c32 -3 57 -11 57 -17 -1 -6 -18 -45 -40 -86 l-38 -75 -15 35
c-8 19 -27 64 -41 99 l-25 63 22 -6 c12 -3 48 -9 80 -13z m-7603 -35 c0 -12
-12 -9 -32 6 -14 10 -15 15 -5 25 9 9 15 8 24 -6 7 -9 13 -20 13 -25z m7900
29 c0 -11 -71 -150 -75 -146 -1 2 -16 36 -33 76 -27 64 -29 72 -14 76 27 7
122 3 122 -6z m-124 -92 c40 -103 44 -84 -43 -244 l-46 -84 -43 103 c-24 56
-44 108 -44 114 0 7 20 57 45 110 42 89 48 97 71 94 22 -3 30 -15 60 -93z
m-8088 67 c2 -7 -3 -12 -12 -12 -9 0 -16 7 -16 16 0 17 22 14 28 -4z m7642 6
c0 -24 -79 -339 -92 -369 -7 -16 -16 -29 -20 -29 -4 0 -42 33 -84 74 -51 49
-75 79 -71 89 3 8 11 43 18 77 10 52 17 65 43 81 17 10 44 19 59 19 37 0 88
22 111 49 21 24 36 27 36 9z m668 -32 l69 -44 26 -169 c46 -298 46 -292 -27
-317 -50 -17 -72 -11 -92 28 -21 41 -134 355 -134 373 0 15 78 173 85 173 3 0
36 -20 73 -44z m455 -46 c42 -23 77 -45 77 -50 0 -6 -70 -107 -95 -138 -5 -6
-94 40 -108 56 -12 14 -37 158 -37 211 0 9 14 5 43 -12 23 -13 77 -43 120 -67z
m-8472 46 c30 -21 45 -46 96 -168 66 -157 84 -216 62 -203 -40 23 -349 247
-349 252 0 11 83 114 104 129 29 20 46 18 87 -10z m7149 -16 c0 -5 -4 -10 -10
-10 -5 0 -10 5 -10 10 0 6 5 10 10 10 6 0 10 -4 10 -10z m-7626 -108 l34 -101
-44 -147 c-43 -143 -50 -162 -58 -153 -4 5 -106 453 -106 466 0 9 129 44 138
38 1 -1 18 -47 36 -103z m46 98 c37 -1 40 -14 19 -84 -11 -37 -23 -66 -25 -63
-3 2 -15 39 -29 82 l-23 77 21 -6 c12 -3 29 -6 37 -6z m254 -35 c-20 -25 -38
-45 -41 -45 -2 0 -25 15 -51 32 l-47 33 64 7 c35 4 66 10 69 13 3 3 14 5 24 5
16 0 14 -7 -18 -45z m-118 -21 c57 -40 63 -47 52 -63 -30 -41 -141 -181 -144
-181 -1 0 -10 25 -19 56 -15 52 -15 59 5 132 26 96 28 102 36 102 4 0 35 -21
70 -46z m-646 11 c0 -16 -45 -38 -63 -32 -8 2 41 40 61 46 1 1 2 -6 2 -14z
m264 7 c6 -9 107 -457 109 -481 1 -18 -275 -375 -338 -437 -62 -61 -97 -64
-191 -19 -80 39 -120 82 -109 120 4 11 8 31 10 45 4 26 252 710 260 719 4 3
218 55 247 60 4 1 9 -3 12 -7z m802 -18 l44 -26 0 -84 c0 -46 -2 -84 -4 -84
-2 0 -18 33 -34 73 -17 39 -38 89 -46 110 -9 20 -14 37 -10 37 3 0 25 -12 50
-26z m8189 -125 c3 -9 6 -49 6 -89 1 -81 7 -71 -87 -139 l-41 -30 -16 57 c-16
54 -57 291 -57 326 0 20 187 -100 195 -125z m-1230 80 c-8 -28 -16 -53 -18
-56 -5 -5 -57 60 -57 71 0 8 58 35 77 36 8 0 8 -13 -2 -51z m-8165 -331 c-67
-183 -130 -345 -141 -360 -10 -15 -19 -31 -19 -36 0 -4 -6 -16 -13 -26 -12
-16 -17 -17 -38 -6 -47 25 -112 84 -124 114 -19 46 -2 100 104 332 l90 198 63
45 c41 29 86 51 128 62 36 9 67 15 68 14 2 -2 -51 -153 -118 -337z m1543 165
c144 -91 269 -174 277 -183 8 -10 25 -23 38 -29 34 -18 26 -48 -29 -110 -73
-79 -91 -88 -143 -64 -41 18 -267 171 -345 233 -63 49 -71 72 -71 205 0 63 2
115 5 115 3 0 123 -75 268 -167z m-483 20 l180 -128 0 -272 c0 -171 -4 -274
-10 -278 -5 -3 -10 -20 -10 -36 0 -48 -44 -81 -138 -107 -76 -21 -84 -22 -112
-7 -16 9 -30 23 -30 33 0 10 -5 23 -12 30 -12 12 -59 152 -168 496 l-60 188
81 104 c44 57 85 104 90 104 6 0 91 -57 189 -127z m-1140 97 c-14 -11 -28 -20
-32 -20 -14 0 4 29 20 33 34 9 36 6 12 -13z m-64 -28 c-10 -19 -71 -67 -178
-139 -166 -113 -238 -153 -270 -153 -23 0 -118 127 -118 157 0 16 8 24 28 29
15 4 33 11 39 16 12 10 504 127 511 122 2 -1 -3 -15 -12 -32z m9138 -154 c36
-98 66 -182 66 -187 0 -6 -16 -13 -35 -16 -19 -3 -50 -7 -69 -10 -19 -3 -45
-1 -58 5 -25 12 -61 68 -83 130 -14 39 -13 41 41 156 32 68 58 113 63 108 5
-5 39 -89 75 -186z m-264 72 c48 -122 48 -122 -11 -215 -25 -40 -33 -45 -64
-45 -35 0 -115 33 -115 48 0 23 133 322 143 322 2 0 23 -49 47 -110z m749 42
l24 -19 -22 -32 c-36 -50 -46 -43 -57 38 -8 59 -4 59 55 13z m-9739 -208 c-49
-102 -95 -193 -103 -202 -8 -10 -18 -27 -21 -39 -4 -13 -15 -23 -26 -23 -23 0
-140 134 -140 161 0 11 14 32 31 47 40 34 332 240 341 241 4 1 -33 -83 -82
-185z m928 138 c11 -32 9 -37 -34 -93 -25 -32 -47 -59 -48 -59 -2 0 10 45 27
100 17 55 34 97 37 93 4 -5 12 -23 18 -41z m122 -389 c58 -180 105 -337 106
-348 1 -11 4 -32 8 -47 10 -34 -7 -43 -96 -52 -71 -7 -128 10 -128 37 0 6 -7
25 -16 42 -8 16 -38 129 -65 251 -59 260 -59 262 24 373 28 39 54 70 57 71 3
0 53 -147 110 -327z m560 97 c80 -201 102 -276 90 -299 -5 -9 -11 -23 -13 -32
-5 -16 -115 -79 -140 -79 -10 0 -16 16 -21 53 -9 82 -7 537 3 537 5 0 41 -81
81 -180z m7468 115 c12 -36 20 -70 16 -76 -6 -11 -83 -3 -96 10 -12 11 35 131
52 131 3 0 15 -29 28 -65z m-7350 -72 c173 -122 222 -161 222 -178 0 -15 -108
-103 -156 -128 -32 -16 -54 -9 -54 19 0 6 -8 22 -18 35 -15 19 -142 328 -142
345 0 10 18 -1 148 -93z m-942 -40 c-63 -221 -121 -413 -131 -433 -8 -14 -16
-33 -19 -43 -10 -33 -54 -40 -129 -20 -38 9 -71 23 -74 30 -3 6 6 30 19 52 33
55 321 430 331 430 5 1 6 -7 3 -16z m62 -253 c23 -107 43 -217 44 -245 l3 -50
-89 2 c-100 3 -142 20 -131 54 4 10 8 36 10 56 2 21 27 116 54 211 28 95 51
176 51 180 0 3 4 2 8 -3 5 -6 27 -98 50 -205z"/>
</g>
</svg>
