<?xml version="1.0" standalone="no"?>
<!DOCTYPE svg PUBLIC "-//W3C//DTD SVG 20010904//EN"
 "http://www.w3.org/TR/2001/REC-SVG-20010904/DTD/svg10.dtd">
<svg version="1.0" xmlns="http://www.w3.org/2000/svg"
 width="1182.000000pt" height="1280.000000pt" viewBox="0 0 1182.000000 1280.000000"
 preserveAspectRatio="xMidYMid meet">
<metadata>
Created by potrace 1.15, written by Peter Selinger 2001-2017
</metadata>
<g transform="translate(0.000000,1280.000000) scale(0.100000,-0.100000)"
fill="#000000" stroke="none">
<path d="M6005 12786 c-16 -7 -47 -32 -68 -56 -38 -41 -90 -137 -82 -150 2 -4
-71 -12 -164 -18 -309 -22 -479 -91 -577 -236 -45 -67 -71 -151 -90 -300 -32
-253 -106 -703 -125 -761 -25 -79 -68 -142 -119 -176 -70 -47 -122 -52 -444
-42 l-291 9 -70 54 c-38 29 -102 68 -142 87 -261 121 -616 91 -797 -68 l-47
-42 -156 7 c-169 8 -211 18 -239 61 -31 47 -33 105 -22 498 12 417 10 445 -36
542 -61 131 -222 247 -394 284 -26 5 -147 15 -268 21 -139 8 -220 16 -223 23
-10 28 -89 99 -135 121 -143 70 -299 23 -386 -116 -19 -29 -35 -54 -36 -56 -1
-2 -152 20 -335 48 -298 46 -340 51 -393 41 -140 -25 -278 -126 -332 -244 -25
-54 -29 -74 -29 -152 1 -77 5 -98 28 -146 32 -67 109 -142 174 -171 70 -31
135 -32 527 -8 l359 22 26 -34 c43 -55 73 -80 130 -106 96 -44 202 -19 289 69
23 24 42 47 42 51 0 12 254 10 266 -2 7 -7 9 -171 6 -508 -4 -441 -3 -504 12
-562 23 -89 54 -147 100 -187 65 -55 110 -63 421 -74 154 -6 329 -13 389 -17
l109 -7 15 -43 c7 -23 28 -58 46 -77 l33 -34 -83 -968 c-46 -532 -83 -983 -84
-1002 l0 -34 -54 6 c-53 5 -55 5 -60 -21 -3 -15 -60 -688 -127 -1497 -68 -808
-124 -1472 -125 -1473 -1 -2 -180 1 -398 7 l-395 11 -87 -25 c-204 -60 -292
-133 -352 -292 -21 -58 -26 -90 -30 -215 l-4 -148 -81 -47 c-301 -176 -530
-417 -677 -712 -113 -224 -155 -375 -148 -529 3 -78 9 -108 30 -154 36 -77 72
-123 127 -160 25 -17 47 -32 49 -34 2 -1 -16 -39 -39 -85 -198 -394 -242 -844
-133 -1337 137 -617 557 -1234 979 -1439 118 -57 384 -118 695 -160 175 -23
538 -23 675 0 352 62 667 189 928 374 108 77 276 247 360 364 126 176 236 426
292 664 55 232 69 369 69 670 0 154 -5 316 -11 359 -10 72 -10 83 8 117 18 36
20 37 49 26 l30 -11 0 -92 c0 -357 175 -523 427 -405 88 42 193 146 219 218
l18 51 275 -94 275 -94 1289 666 c709 366 1290 664 1292 662 1 -2 21 -39 44
-84 160 -310 573 -561 1079 -656 180 -34 442 -32 612 4 836 179 1399 828 1610
1857 96 470 116 1065 44 1316 -6 19 -6 19 8 1 14 -18 16 -18 70 6 100 46 151
116 171 235 l11 64 -48 97 c-95 190 -239 397 -387 556 -45 47 -79 92 -76 99 2
6 89 167 192 357 l188 345 5 76 c5 94 -15 170 -61 230 -59 77 -35 72 -834 165
-401 47 -744 83 -763 81 -52 -6 -2241 -735 -2270 -756 -14 -10 -35 -33 -47
-51 -42 -61 -23 -167 37 -210 16 -11 107 -39 209 -63 100 -24 184 -47 188 -50
3 -4 -12 -26 -33 -49 -377 -411 -657 -1215 -667 -1914 -2 -163 5 -153 -92
-129 l-60 14 -1135 -584 c-624 -321 -1142 -587 -1151 -590 -14 -5 -17 7 -23
87 -42 564 -101 854 -231 1125 -216 451 -614 748 -1234 919 -68 19 -125 35
-127 36 -1 2 40 497 92 1102 52 604 93 1101 90 1103 -2 3 -23 7 -45 10 -23 3
-41 10 -41 15 0 6 54 462 120 1014 66 552 120 1010 120 1017 0 7 23 24 50 37
47 22 92 60 123 103 12 17 29 17 417 1 223 -9 443 -13 490 -10 296 20 582 198
656 409 8 22 39 217 69 431 31 215 62 441 71 501 20 140 41 191 89 211 33 13
140 23 148 13 2 -2 15 -25 30 -51 30 -52 106 -98 163 -98 46 0 110 25 154 60
l39 31 395 -56 c389 -56 395 -57 449 -41 147 43 270 251 254 429 -7 75 -47
158 -97 197 -84 67 -98 69 -523 101 -216 16 -401 29 -412 29 -14 0 -28 15 -45
48 -14 26 -43 67 -65 91 -61 67 -124 86 -190 57z m4555 -4921 c223 -26 406
-48 407 -49 2 -1 -44 -17 -102 -35 l-105 -32 -327 81 c-180 44 -329 83 -332
86 -4 4 8 4 24 0 17 -3 212 -26 435 -51z m-780 -165 c111 -33 205 -62 209 -66
3 -4 -5 -4 -19 0 -14 3 -92 11 -175 17 -138 10 -272 8 -465 -8 -43 -3 -72 -2
-67 3 5 5 77 32 160 61 84 28 152 52 153 52 0 1 92 -26 204 -59z m1410 -167
c0 -8 -149 -295 -159 -305 -3 -3 -40 16 -81 43 -41 28 -106 68 -145 89 -42 24
-64 41 -55 44 55 19 426 135 433 136 4 0 7 -3 7 -7z m-2690 -143 c-8 -5 -19
-10 -25 -10 -5 0 -3 5 5 10 8 5 20 10 25 10 6 0 3 -5 -5 -10z m-4975 -1866
c206 -34 362 -111 501 -249 132 -130 217 -269 289 -476 104 -296 139 -590 119
-976 l-7 -121 -71 142 c-74 145 -157 283 -239 396 l-47 64 0 106 c0 152 -17
377 -35 467 -43 212 -177 353 -390 408 -40 10 -106 15 -202 15 l-143 0 0 58
c0 31 3 88 7 125 l6 69 61 -7 c34 -3 102 -13 151 -21z m-892 -645 c660 -11
698 -13 780 -55 39 -20 117 -82 117 -93 0 -5 -30 3 -67 16 -99 36 -253 73
-373 89 -138 18 -580 33 -1067 36 -216 2 -393 4 -393 6 0 14 71 19 205 16 88
-2 447 -9 798 -15z"/>
</g>
</svg>
